<svg xmlns="http://www.w3.org/2000/svg" viewBox="0 0 43.2 81.6"><defs><style>.cls-1{isolation:isolate;}.cls-2{fill:#fff;}.cls-2,.cls-3{fill-rule:evenodd;}.cls-3{fill:#cba675;}</style></defs><title>mzuzu_foreground</title><g id="Sanduhr_aussen" data-name="Sanduhr aussen" class="cls-1"><g id="Sanduhr_aussen-2" data-name="Sanduhr aussen"><path class="cls-2" d="M60,60C49.2,65.4,38.4,70.8,38.4,81.6,38.4,96,48,100.8,60,100.8S81.6,96,81.6,81.6C81.6,70.8,70.8,65.4,60,60ZM81.6,38.4C81.6,24,72,19.2,60,19.2S38.4,24,38.4,38.4C38.4,49.2,49.2,54.6,60,60,70.8,54.6,81.6,49.2,81.6,38.4Z" transform="translate(-38.4 -19.2)"/></g></g><g id="Sanduhr_Innen" data-name="Sanduhr Innen" class="cls-1"><g id="Sanduhr_Innen-2" data-name="Sanduhr Innen"><path class="cls-3" d="M79.2,38.4c0-3.79-6-3.92-11.17-2.11-9.7,3.38-22.55,11.47-27.23,2.11C40.8,49.26,60,56.4,60,60,60,56.4,79.2,49.51,79.2,38.4ZM71.9,87C66.63,86.16,60,82.14,60,60c0,22.49-6.82,26.26-12.14,26.94-4.33.56-7.66-.92-5.48,4,2.73,6.2,8.91,7.46,17.62,7.46S74.84,97.15,77.59,91C79.84,86,76.35,87.62,71.9,87Z" transform="translate(-38.4 -19.2)"/></g></g></svg>